# xmcd
#
# Track frame offsets: 
#        150
#        11567
#        22278
#        32212
#        40850
#        53822
#        65329
#        76296
#        88020
#        97344
#        110066
#        122481
#        135656
#        149234
#        164349
#        175721
#        189683
#        202255
#        216565
#        229761
#        241294
#        255537
#        269696
#        280085
#        292355
#
# Disc length: 4033 seconds
#
# Revision: 0
# Processed by: cddbd v1.5.2PL0 Copyright (c) Steve Scherf et al.
# Submitted via: ExactAudioCopy v1.0b3
#
DISCID=910fbf19
DTITLE=Johnny Rodriguez - The Definitive Collection The Mercury Years 
DTITLE=[CD1]
DYEAR=2014
DGENRE=Country
TTITLE0=Pass Me By (If You're Only Passing Through)
TTITLE1=You Always Come Back To Hurting Me
TTITLE2=Ridin' My Thumb To Mexico
TTITLE3=That's The Way Love Goes
TTITLE4=Something
TTITLE5=Dance With Me (Just One More Time)
TTITLE6=We're Over
TTITLE7=I Just Can't Get Her Out Of My Mind
TTITLE8=Just Get Up And Close The Door
TTITLE9=Love Put A Song In My Heart
TTITLE10=I Couldn't Be Me Without You
TTITLE11=I Wonder If I Ever Said Goodbye
TTITLE12=Hillbilly Heart
TTITLE13=Desperado
TTITLE14=If Practice Makes Perfect
TTITLE15=We Believe In Happy Endings
TTITLE16=Love Put A Song In My Heart
TTITLE17=Alibis
TTITLE18=Savin' This Love Song For You
TTITLE19=Someone Loves You Honey
TTITLE20=I'm Not That Good At Goodbye
TTITLE21=It Took All Night Long To Say Goodbye
TTITLE22=You Don't Know Me
TTITLE23=Too Many Rivers
TTITLE24=Am I That Easy To Forget
EXTD=
EXTT0=
EXTT1=
EXTT2=
EXTT3=
EXTT4=
EXTT5=
EXTT6=
EXTT7=
EXTT8=
EXTT9=
EXTT10=
EXTT11=
EXTT12=
EXTT13=
EXTT14=
EXTT15=
EXTT16=
EXTT17=
EXTT18=
EXTT19=
EXTT20=
EXTT21=
EXTT22=
EXTT23=
EXTT24=
PLAYORDER=
